<?xml version="1.0" standalone="no"?>
<!DOCTYPE svg PUBLIC "-//W3C//DTD SVG 20010904//EN"
 "http://www.w3.org/TR/2001/REC-SVG-20010904/DTD/svg10.dtd">
<svg version="1.0" xmlns="http://www.w3.org/2000/svg"
 width="740.000000pt" height="512.000000pt" viewBox="0 0 740.000000 512.000000"
 preserveAspectRatio="xMidYMid meet">

<g transform="translate(0.000000,512.000000) scale(0.100000,-0.100000)"
fill="#000000" stroke="none">
<path d="M2500 5114 c-19 -2 -91 -9 -160 -15 -427 -36 -832 -178 -1188 -416
-297 -198 -512 -413 -711 -708 -324 -483 -478 -1084 -421 -1650 43 -439 181
-830 417 -1183 198 -297 413 -513 708 -711 631 -424 1427 -544 2152 -325 574
173 1057 530 1392 1029 283 422 431 908 431 1420 0 408 -90 788 -274 1153 -74
146 -169 295 -191 298 -10 1 -25 10 -34 19 -15 16 -14 17 7 6 17 -9 22 -9 22
1 0 18 -11 31 -40 51 -13 9 -19 17 -12 17 7 0 10 4 7 10 -4 6 -11 5 -19 -2
-10 -10 -9 -16 5 -32 29 -31 16 -29 -38 4 -31 19 -56 28 -66 24 -16 -6 -15 -8
4 -25 12 -11 18 -19 13 -19 -5 -1 5 -7 21 -14 l30 -13 -33 2 c-34 2 -58 31
-68 79 -6 31 -35 56 -104 91 -82 41 -115 52 -105 34 6 -9 2 -11 -13 -7 -22 6
-40 -18 -19 -25 8 -2 8 -5 -1 -11 -7 -4 -23 4 -38 19 -15 15 -52 35 -83 46
l-56 19 45 -5 c25 -2 61 -7 80 -10 19 -3 42 -1 50 4 12 8 9 14 -15 35 -17 14
-38 26 -48 26 -10 0 -41 10 -68 21 -38 17 -61 20 -100 16 -28 -4 -57 -11 -64
-17 -8 -7 -22 -7 -44 1 l-32 11 27 14 c14 8 30 11 35 8 5 -3 25 -2 46 2 35 7
36 8 14 16 -13 5 -21 11 -17 15 10 10 118 6 165 -6 53 -15 50 -23 -4 -11 -57
13 -85 12 -85 -3 0 -13 92 -44 197 -67 23 -5 58 -16 78 -25 35 -14 36 -14 24
2 -13 15 -12 15 8 5 12 -7 27 -20 32 -30 6 -9 11 -13 11 -9 0 4 9 3 20 -3 11
-6 17 -16 14 -22 -5 -7 -12 -5 -21 7 -7 11 -13 16 -13 12 0 -3 -19 2 -43 12
-23 10 -58 22 -76 26 l-34 7 19 -25 c18 -24 109 -65 144 -65 8 0 24 -3 35 -8
17 -7 18 -6 7 8 -10 13 -10 18 -1 24 7 4 9 3 6 -3 -4 -6 0 -16 8 -23 27 -23
15 -30 -22 -15 l-38 15 40 -38 c38 -36 100 -72 124 -72 21 0 11 19 -26 50 -21
17 -29 28 -19 24 15 -6 17 -4 11 7 -5 8 1 5 13 -5 12 -11 22 -24 22 -30 0 -6
9 -17 20 -23 38 -25 -40 76 -148 188 -367 383 -857 650 -1366 743 -172 32
-463 58 -546 50z m-19 -614 c4 -14 7 -60 8 -102 1 -92 -23 -168 -72 -220 -30
-33 -40 -37 -147 -57 -136 -26 -294 -78 -405 -133 -112 -57 -232 -135 -232
-152 0 -8 3 -15 6 -14 24 2 33 -4 28 -22 -3 -11 -1 -20 5 -20 6 0 7 -7 4 -16
-4 -10 -2 -13 6 -8 8 5 9 2 5 -10 -4 -10 -3 -15 3 -11 6 3 10 -3 10 -15 0 -12
4 -18 10 -15 5 3 7 0 4 -8 -3 -8 0 -18 5 -22 6 -3 9 -10 7 -14 -9 -13 22 -96
34 -93 6 1 8 -2 5 -8 -4 -6 1 -21 12 -32 10 -12 13 -18 6 -14 -9 5 -12 -2 -10
-23 1 -16 6 -27 11 -24 4 3 5 -4 2 -15 -5 -15 -2 -22 13 -27 11 -3 18 -12 15
-20 -3 -7 1 -26 9 -42 24 -46 31 -77 17 -68 -8 5 -11 4 -6 -3 4 -6 13 -9 22
-5 12 4 13 1 4 -21 -5 -15 -6 -25 -2 -22 4 2 14 1 22 -5 11 -6 11 -9 2 -9 -10
0 -10 -5 -2 -21 13 -24 5 -38 -12 -21 -9 9 -15 9 -27 -1 -12 -10 -14 -9 -8 5
3 10 2 17 -4 15 -5 -1 -18 22 -29 51 -10 28 -16 52 -14 52 2 0 -3 11 -12 25
-8 13 -12 30 -8 36 4 7 3 9 -4 5 -12 -7 -26 29 -17 44 3 5 2 10 -2 10 -9 0
-46 100 -46 125 0 8 -3 12 -7 10 -4 -2 -15 24 -25 58 -10 34 -21 67 -25 72 -4
6 -10 21 -13 35 -15 68 -35 105 -59 107 -12 1 -16 0 -8 -3 16 -5 26 -26 55
-109 9 -27 21 -59 25 -70 5 -11 16 -45 26 -75 9 -30 21 -61 26 -67 6 -7 8 -20
4 -28 -3 -8 -2 -15 3 -15 5 0 16 -24 25 -52 9 -29 23 -66 31 -83 24 -53 55
-137 55 -150 0 -7 7 -18 16 -26 8 -7 13 -21 11 -31 -3 -10 -1 -16 3 -13 5 3
10 2 12 -3 9 -21 70 -52 128 -63 36 -7 68 -17 71 -21 3 -5 17 2 32 16 14 13
27 22 29 20 2 -2 20 11 39 28 19 17 35 31 37 30 9 -7 22 0 17 8 -3 6 1 10 10
10 9 0 13 5 10 10 -4 6 -3 9 2 8 15 -4 53 13 48 22 -3 4 5 11 18 14 12 3 33
15 47 27 14 11 18 17 10 13 -9 -4 -12 -3 -7 2 9 9 13 10 43 13 8 0 12 6 9 11
-3 6 1 10 10 10 9 0 13 5 10 10 -4 6 -3 10 2 9 11 -3 63 19 63 26 0 4 -6 3
-12 -1 -7 -4 -10 -4 -6 0 3 4 9 6 11 4 3 -2 18 8 33 22 15 14 23 18 19 10 -8
-13 -6 -13 8 -1 9 7 14 17 11 22 -3 5 2 6 10 3 9 -3 16 -1 16 5 0 6 6 10 13 8
6 -1 11 4 9 11 -1 8 2 11 7 7 6 -3 19 3 31 15 11 11 22 20 25 20 3 0 10 0 16
0 5 0 8 4 5 9 -4 5 7 12 24 16 17 4 28 11 24 16 -3 5 2 9 10 9 8 0 18 5 22 12
5 7 3 8 -6 3 -9 -5 -11 -4 -6 4 4 6 12 9 17 5 6 -3 16 2 24 12 7 11 17 19 22
20 28 3 62 18 57 25 -3 5 2 9 10 9 8 0 18 5 22 12 5 7 3 8 -6 3 -8 -5 -11 -4
-6 3 4 6 13 9 21 5 8 -3 15 0 15 7 0 6 4 9 9 6 4 -3 17 2 27 10 10 9 13 12 5
8 -9 -4 -12 -3 -7 4 4 6 13 9 21 5 8 -3 15 -1 15 5 0 5 7 13 16 16 9 3 12 2 8
-5 -3 -6 3 -5 14 2 12 7 18 18 15 24 -4 5 -3 7 2 3 4 -4 17 -2 29 4 11 7 26
13 33 14 6 1 19 6 28 11 12 7 37 3 83 -14 73 -27 206 -57 224 -51 6 2 -4 12
-23 21 -35 17 -24 21 30 11 17 -4 28 -10 25 -15 -3 -5 -1 -9 5 -9 5 0 8 -10 6
-21 -4 -20 -3 -20 13 -6 12 11 22 13 32 7 8 -5 32 -10 53 -10 33 0 50 -13 30
-22 -5 -1 -21 -30 -37 -63 -38 -78 -48 -185 -21 -215 20 -22 50 -25 92 -9 37
14 161 30 248 33 51 1 82 8 113 24 27 15 42 18 42 10 0 -7 5 -5 13 5 8 10 40
20 97 27 81 11 85 11 101 -9 10 -12 24 -21 33 -21 8 0 17 -4 20 -9 7 -10 -36
-41 -57 -41 -8 0 -22 -9 -32 -20 -10 -11 -27 -22 -38 -26 -10 -3 -33 -19 -50
-35 -17 -17 -37 -27 -44 -25 -7 3 -12 1 -10 -5 1 -6 -7 -16 -18 -22 -11 -7
-26 -20 -33 -29 -14 -19 -42 -24 -57 -10 -6 5 -30 17 -54 26 -25 10 -57 26
-72 37 -51 36 -55 29 -63 -92 -4 -61 -12 -119 -18 -128 -12 -19 -233 -129
-278 -138 -16 -3 -27 -9 -25 -14 3 -4 -11 -13 -32 -18 -21 -6 -53 -20 -71 -31
-18 -11 -39 -20 -46 -20 -7 0 -34 -9 -59 -20 -25 -11 -58 -21 -74 -22 -15 -1
-32 -5 -38 -9 -16 -12 -224 -79 -244 -79 -21 0 -118 -27 -143 -41 -10 -5 -23
-9 -29 -9 -7 0 -30 -8 -53 -19 -23 -10 -59 -26 -81 -36 -22 -10 -76 -21 -120
-25 -53 -6 -26 -6 81 -3 174 6 220 -2 189 -33 -8 -9 -15 -23 -15 -33 0 -24
-42 -68 -77 -82 -18 -7 -250 -16 -653 -25 -344 -7 -724 -18 -845 -23 -269 -13
-1065 -18 -1083 -8 -24 16 -11 22 56 25 37 2 68 7 70 11 1 4 28 6 60 4 37 -3
52 -1 44 5 -9 6 10 9 55 9 37 -1 109 0 159 2 l92 3 -9 32 c-5 17 -9 51 -9 75
l0 44 73 -7 c39 -3 125 -16 190 -28 116 -22 117 -22 117 -50 0 -22 4 -28 23
-28 37 1 161 18 181 26 14 5 17 4 12 -4 -9 -15 -9 -15 274 13 129 13 198 23
153 21 -73 -4 -83 -2 -83 13 0 28 22 50 65 64 37 13 40 17 48 63 5 30 16 56
28 67 12 9 16 17 10 17 -6 0 -8 8 -4 18 6 16 5 16 -13 1 -10 -9 -37 -26 -59
-39 -39 -23 -40 -23 -21 -2 11 12 24 22 31 22 6 0 22 11 35 25 13 14 29 25 37
25 7 0 13 4 13 9 0 6 31 31 70 58 38 26 70 55 70 63 0 10 -9 5 -25 -13 -14
-15 -29 -27 -34 -27 -4 0 -16 -8 -27 -19 -23 -21 -64 -45 -79 -46 -5 -1 -9 -7
-7 -14 2 -9 -3 -11 -13 -7 -9 3 -14 2 -11 -3 8 -12 -31 -44 -57 -46 -12 -1
-22 -7 -22 -14 0 -8 -80 -82 -89 -81 -1 0 -2 35 -3 77 0 42 -7 86 -13 99 -8
14 -10 34 -5 51 10 38 12 103 3 103 -5 0 -8 18 -8 39 0 22 -4 42 -10 46 -5 3
-7 36 -5 73 3 46 2 59 -4 42 -6 -17 -7 -2 -3 44 3 40 1 67 -4 64 -5 -4 -9 50
-9 127 0 73 3 128 7 122 5 -7 8 -2 9 13 1 14 4 36 6 50 2 14 4 37 6 52 1 14 6
24 11 20 5 -3 7 1 4 9 -3 8 0 26 8 40 22 40 16 41 -22 7 -92 -83 -235 -280
-304 -418 -83 -166 -141 -363 -162 -552 l-11 -107 -61 -4 c-34 -2 89 -4 272
-5 279 -2 332 -4 332 -16 0 -29 -67 -39 -219 -32 -156 7 -431 20 -678 32 -84
4 -150 11 -147 16 3 4 32 8 64 8 l58 0 7 78 c35 419 181 791 432 1102 83 103
260 273 363 349 285 212 620 342 975 380 104 11 108 10 116 -19z m1202 -87
c-4 -11 -3 -14 5 -9 7 4 12 2 12 -3 0 -17 -19 -13 -42 9 l-22 20 27 0 c20 0
25 -4 20 -17z m-106 1 c-3 -3 -12 -4 -19 -1 -8 3 -5 6 6 6 11 1 17 -2 13 -5z
m-47 -16 c0 -4 -9 -8 -20 -8 -11 0 -20 4 -20 9 0 6 9 9 20 8 11 -1 20 -5 20
-9z m120 -4 c0 -2 -7 -4 -15 -4 -8 0 -15 4 -15 10 0 5 7 7 15 4 8 -4 15 -8 15
-10z m-56 -4 c-6 -6 -37 -17 -70 -25 -32 -9 -68 -25 -79 -36 l-20 -20 75 5
c85 6 184 32 175 46 -4 6 1 10 10 10 8 0 18 6 21 14 3 7 16 14 29 14 14 0 22
-4 19 -9 -3 -5 1 -9 8 -9 10 0 9 -3 -1 -9 -12 -8 -13 -12 -1 -26 11 -13 11
-18 0 -28 -10 -9 -11 -9 -6 1 4 7 2 19 -4 27 -10 12 -19 11 -59 -9 -25 -13
-63 -24 -84 -24 -22 0 -55 -11 -83 -27 -25 -15 -48 -24 -51 -21 -4 3 -1 6 6 6
7 0 9 5 6 10 -9 15 -56 6 -91 -16 -27 -17 -116 -93 -111 -95 39 -13 135 20
122 41 -7 12 40 24 60 16 9 -3 13 -2 10 4 -4 6 7 10 25 10 18 0 29 4 25 10 -3
5 9 9 29 8 19 -1 42 5 51 12 8 7 15 9 15 4 0 -12 -58 -45 -62 -35 -2 3 -19 1
-38 -6 -19 -6 -28 -12 -20 -13 29 -1 -13 -20 -45 -20 -37 0 -81 -46 -64 -67 6
-7 18 -13 25 -13 8 0 14 -4 14 -10 0 -5 -7 -10 -15 -10 -8 0 -15 -4 -15 -8 0
-4 -11 -8 -24 -8 -14 0 -22 4 -19 10 4 5 -1 7 -9 3 -22 -8 -30 3 -16 20 18 23
-3 33 -47 23 -25 -6 -42 -5 -46 1 -3 6 -12 9 -20 7 -8 -2 -14 4 -14 12 0 8 7
15 15 16 40 2 165 103 157 127 -2 7 -15 11 -28 9 -21 -2 -22 -1 -6 8 9 6 17
17 17 25 0 9 6 12 15 9 8 -4 12 -11 9 -16 -7 -12 27 -3 66 17 14 7 45 16 70
20 25 4 52 11 60 16 20 11 26 11 14 -1z m604 -19 c2 -6 9 -8 15 -5 8 5 9 4 2
-4 -8 -8 -26 -7 -70 4 -33 9 -62 17 -64 19 -2 2 23 2 55 0 32 -1 60 -8 62 -14z
m-581 -17 c-3 -3 -12 -4 -19 -1 -8 3 -5 6 6 6 11 1 17 -2 13 -5z m458 -28 c18
-13 14 -14 -35 -13 -30 0 -49 2 -42 5 6 2 10 8 6 13 -9 14 50 10 71 -5z m-288
-18 c-3 -8 -6 -5 -6 6 -1 11 2 17 5 13 3 -3 4 -12 1 -19z m340 -4 c-3 -3 -12
-4 -19 -1 -8 3 -5 6 6 6 11 1 17 -2 13 -5z m-427 -25 c0 -5 -6 -8 -12 -6 -7 1
-12 -5 -10 -13 3 -11 -2 -10 -17 4 -11 10 -18 22 -16 26 6 10 55 0 55 -11z
m-437 -3 c7 4 -1 -7 -17 -24 -31 -34 -29 -39 7 -21 15 7 12 1 -11 -20 -37 -35
-47 -38 -56 -14 -4 10 -4 14 0 10 4 -4 16 5 26 20 20 32 23 47 6 37 -7 -4 -8
-3 -4 5 4 6 12 9 17 6 5 -4 9 0 10 7 0 10 2 10 6 0 2 -6 10 -9 16 -6z m1083
-22 c18 -14 18 -14 -6 -3 -31 14 -36 19 -24 19 6 0 19 -7 30 -16z m-1156 -8
c0 -2 -8 -10 -17 -17 -16 -13 -17 -12 -4 4 13 16 21 21 21 13z m1284 -35 c-2
-3 -12 3 -22 13 -16 17 -16 18 5 5 12 -7 20 -15 17 -18z m-942 -17 c-10 -23
-18 -31 -20 -21 -3 12 25 57 35 57 1 0 -5 -16 -15 -36z m-388 14 c-4 -7 -16
-19 -26 -26 -10 -7 -18 -18 -18 -23 0 -5 -9 -19 -20 -31 -22 -24 -17 -42 12
-35 16 5 17 3 6 -10 -7 -8 -17 -24 -23 -35 -11 -22 -31 -22 -29 0 3 21 -21 13
-51 -18 -29 -30 -50 -39 -43 -19 2 6 8 10 13 10 20 -1 83 71 80 90 -3 12 14
33 48 63 56 49 62 53 51 34z m1196 -28 c8 -5 11 -10 5 -10 -5 0 -4 -4 4 -9 7
-5 10 -14 6 -20 -8 -15 -35 4 -35 24 0 8 -6 16 -12 18 -9 4 -8 6 2 6 8 0 22
-4 30 -9z m-666 -18 c3 -5 -1 -9 -9 -9 -8 0 -12 4 -9 9 3 4 7 8 9 8 2 0 6 -4
9 -8z m-157 -54 c-6 -3 -15 -4 -21 -1 -5 4 -6 1 -2 -6 5 -7 22 -11 39 -9 20 2
32 -2 34 -12 4 -13 3 -13 -6 0 -8 11 -11 12 -11 2 0 -9 -7 -11 -21 -7 -12 4
-29 8 -38 10 -19 3 -16 25 6 42 13 10 18 10 24 1 5 -7 3 -16 -4 -20z m287 17
c3 -8 1 -15 -4 -15 -6 0 -10 7 -10 15 0 8 2 15 4 15 2 0 6 -7 10 -15z m525
-35 c7 0 10 -4 6 -9 -3 -5 5 -12 17 -14 13 -2 7 -4 -13 -3 -23 1 -35 5 -32 12
2 7 -1 15 -7 19 -6 3 -10 3 -9 -2 4 -25 -3 -43 -17 -43 -14 0 -15 -2 -3 -17
13 -16 12 -17 -4 -4 -12 9 -14 17 -7 26 5 6 6 16 2 20 -4 5 -1 5 6 1 8 -5 12
1 12 20 0 26 1 26 18 11 10 -10 24 -17 31 -17z m-495 5 c-4 -8 -10 -12 -15 -9
-11 6 -2 24 11 24 5 0 7 -7 4 -15z m-814 2 c0 -2 -10 -12 -22 -23 l-23 -19 19
23 c18 21 26 27 26 19z m154 -32 c-16 -14 -21 -23 -11 -19 10 3 17 1 17 -5 0
-6 -4 -11 -8 -11 -4 0 -9 -11 -10 -26 -1 -14 2 -23 8 -19 6 3 10 -3 10 -14 0
-17 -6 -21 -30 -21 -20 0 -30 -5 -30 -15 0 -8 -4 -15 -10 -15 -5 0 -10 -7 -10
-15 0 -8 -6 -15 -12 -15 -9 0 -8 -4 2 -10 13 -8 13 -10 -1 -10 -9 0 -18 3 -22
6 -7 7 13 54 24 54 11 0 37 59 41 96 3 23 1 31 -9 27 -7 -3 -13 -2 -13 1 0 8
83 45 89 40 2 -2 -9 -15 -25 -29z m257 3 c11 -21 11 -22 -4 -9 -10 7 -17 17
-17 22 0 15 9 10 21 -13z m671 -10 c-7 -7 -12 -8 -12 -2 0 6 3 14 7 17 3 4 9
5 12 2 2 -3 -1 -11 -7 -17z m71 -3 c-3 -9 -8 -14 -10 -11 -3 3 -2 9 2 15 9 16
15 13 8 -4z m-763 -3 c0 -5 -7 -9 -15 -9 -8 0 -12 4 -9 9 3 4 9 8 15 8 5 0 9
-4 9 -8z m1060 -43 c0 -5 5 -9 11 -9 5 0 7 4 4 10 -3 5 0 7 9 4 8 -3 17 -12
20 -21 5 -13 0 -14 -31 -8 -21 4 -47 9 -57 10 -11 1 -22 7 -24 15 -3 7 0 10 7
6 6 -4 11 -3 11 2 0 5 11 7 25 4 14 -2 25 -8 25 -13z m123 1 c3 -11 4 -20 3
-20 -1 0 -9 9 -19 20 -13 15 -14 20 -3 20 7 0 16 -9 19 -20z m-1324 -17 c-9
-10 -8 -13 4 -13 8 0 17 6 20 14 4 9 14 12 26 9 11 -3 17 -11 14 -19 -5 -14
-85 -15 -99 -1 -10 9 10 24 31 24 11 0 12 -4 4 -14z m384 -6 c3 -8 -1 -14 -9
-14 -15 0 -18 9 -7 20 9 9 10 9 16 -6z m-615 -18 c2 -9 -4 -19 -12 -22 -11 -4
-13 -1 -9 10 3 8 0 19 -8 25 -11 7 -9 8 6 6 11 -2 21 -10 23 -19z m1387 -34
c0 -5 10 -9 23 -9 23 1 30 -10 12 -21 -5 -3 -10 -1 -10 5 0 7 -7 5 -16 -4 -18
-19 -28 -21 -18 -4 5 8 2 9 -10 5 -13 -5 -15 -3 -7 12 6 10 8 29 5 42 -5 23
-5 23 8 4 7 -11 13 -24 13 -30z m-1425 25 c0 -5 -7 -10 -16 -10 -8 0 -12 5 -9
10 3 6 10 10 16 10 5 0 9 -4 9 -10z m1544 -19 c-2 -3 -12 3 -22 13 -16 17 -16
18 5 5 12 -7 20 -15 17 -18z m-556 -6 c-3 -3 -9 2 -12 12 -6 14 -5 15 5 6 7
-7 10 -15 7 -18z m672 15 c0 -3 -4 -11 -8 -18 -7 -10 -13 -8 -26 7 -17 18 -16
19 8 17 14 0 26 -3 26 -6z m-648 -22 c-7 -7 -12 -8 -12 -2 0 6 3 14 7 17 3 4
9 5 12 2 2 -3 -1 -11 -7 -17z m-933 -73 c29 4 32 4 14 -4 -14 -7 -21 -16 -17
-25 7 -18 54 -50 62 -42 3 3 -1 6 -8 6 -7 0 -11 3 -8 6 3 3 23 -3 45 -14 21
-10 51 -22 67 -26 15 -4 26 -9 23 -12 -2 -3 -24 2 -47 10 -45 15 -70 12 -70
-9 0 -8 -4 -17 -10 -20 -6 -4 -7 1 -3 11 5 13 3 15 -7 9 -8 -5 -11 -4 -6 3 4
6 -5 19 -19 28 -28 18 -58 62 -33 49 7 -4 2 2 -12 13 -28 23 -44 19 -37 -10 4
-15 3 -17 -9 -8 -9 9 -11 17 -4 30 11 21 -14 62 -34 54 -8 -3 -17 -1 -21 5 -3
6 1 11 10 11 10 0 13 5 9 13 -4 6 12 -9 35 -36 40 -44 46 -47 80 -42z m255 33
c-3 -4 -1 -8 4 -8 5 0 7 -11 4 -25 -4 -24 -22 -36 -22 -15 0 6 -7 10 -15 10
-9 0 -12 6 -8 17 4 11 3 14 -5 9 -15 -9 -16 16 -1 31 13 13 52 -5 43 -19z
m246 -4 c-6 -14 -8 -29 -5 -34 3 -5 1 -11 -4 -14 -10 -7 -7 47 4 64 12 19 14
10 5 -16z m725 -3 c0 -17 -5 -34 -9 -38 -5 -4 -6 -2 -2 5 4 7 2 12 -6 13 -9 0
-9 2 -2 5 7 3 10 14 7 24 -3 11 -1 20 4 20 5 0 8 -13 8 -29z m280 11 c-3 -3
-11 0 -18 7 -9 10 -8 11 6 5 10 -3 15 -9 12 -12z m41 -10 c-17 -16 -18 -16 -5
5 7 12 15 20 18 17 3 -2 -3 -12 -13 -22z m-1366 -12 c-6 -11 -15 -18 -20 -15
-6 3 -7 -1 -4 -9 3 -9 1 -16 -5 -16 -6 0 -11 5 -11 11 0 6 -7 8 -15 5 -11 -4
-15 0 -13 12 2 11 16 19 38 23 19 3 36 7 38 8 1 0 -2 -8 -8 -19z m1322 -42
c-17 -17 -24 -20 -34 -10 -9 9 -7 12 9 12 12 0 25 5 28 10 3 6 9 10 13 10 3 0
-4 -10 -16 -22z m-1278 -3 c-4 -10 -2 -13 8 -10 8 3 21 -1 28 -9 7 -9 16 -13
21 -10 5 3 17 0 26 -5 14 -8 15 -10 3 -11 -13 0 -13 -2 0 -11 12 -9 12 -10 -3
-5 -10 3 -28 6 -38 6 -11 0 -18 4 -15 8 3 5 -17 8 -44 6 -32 -1 -50 2 -50 9 0
7 -5 5 -10 -3 -9 -14 -10 -13 -10 18 0 13 25 8 31 -7 4 -12 10 -9 24 12 19 29
38 37 29 12z m1001 -14 c3 -5 2 -12 -3 -15 -5 -3 -9 1 -9 9 0 17 3 19 12 6z
m27 -33 c-8 -8 -9 -4 -5 13 4 13 8 18 11 10 2 -7 -1 -18 -6 -23z m-902 -9 c0
-5 -4 -9 -10 -9 -5 0 -10 7 -10 16 0 8 5 12 10 9 6 -3 10 -10 10 -16z m20 8
c0 -7 -6 -21 -13 -32 -11 -14 -16 -15 -22 -5 -5 9 -4 11 3 6 7 -4 14 3 18 19
7 27 14 33 14 12z m36 1 c5 -7 3 -8 -6 -3 -10 6 -12 4 -6 -11 5 -14 4 -16 -5
-7 -6 6 -8 16 -5 22 9 14 13 14 22 -1z m998 -20 c-4 -6 -10 -5 -15 3 -14 22
-10 33 6 19 8 -7 12 -17 9 -22z m-29 -8 c3 -6 -1 -7 -9 -4 -18 7 -21 14 -7 14
6 0 13 -4 16 -10z m-1169 -19 c-4 -5 0 -12 6 -14 8 -4 7 -6 -4 -6 -9 -1 -24 2
-34 6 -16 6 -16 7 2 14 27 11 36 11 30 0z m1189 -90 c0 -13 -6 -26 -12 -29 -7
-2 -13 1 -13 6 0 5 -11 22 -25 38 -14 16 -25 32 -25 36 0 3 -8 8 -17 11 -15 3
-14 6 7 14 21 9 29 6 55 -21 17 -17 30 -42 30 -55z m-1097 62 c2 -7 -1 -13 -8
-13 -6 0 -9 4 -5 9 3 5 -3 12 -12 15 -15 4 -15 5 1 3 11 -1 21 -8 24 -14z m49
1 c-3 -3 -12 -4 -19 -1 -8 3 -5 6 6 6 11 1 17 -2 13 -5z m739 -5 c3 -6 17 -9
30 -6 13 2 29 -2 35 -9 9 -11 6 -14 -15 -14 -14 0 -26 -4 -26 -10 0 -5 5 -10
10 -10 6 0 10 -20 10 -45 l0 -45 -52 0 -53 0 -2 44 c-2 44 -2 44 38 50 37 6
56 26 23 26 -9 0 -12 5 -8 12 5 8 -4 9 -32 5 -27 -4 -34 -3 -24 3 20 13 57 12
66 -1z m280 -146 c6 -38 3 -54 -13 -83 -12 -20 -30 -36 -44 -38 -21 -4 -21 -3
-6 13 27 27 40 91 26 133 -15 48 -34 69 -70 77 -37 8 -70 -12 -92 -57 l-17
-33 0 37 c0 60 17 86 64 97 41 9 41 8 93 -45 42 -44 53 -62 59 -101z m-979
141 c-3 -3 -12 -4 -19 -1 -8 3 -5 6 6 6 11 1 17 -2 13 -5z m353 -50 c0 -2 -9
-4 -21 -4 -11 0 -18 4 -14 10 5 8 35 3 35 -6z m145 -4 c3 -6 -1 -7 -9 -4 -18
7 -21 14 -7 14 6 0 13 -4 16 -10z m113 -64 c-3 -35 -14 -79 -24 -97 -18 -31
-76 -91 -82 -84 -2 1 8 20 23 40 31 47 34 115 6 162 -11 17 -17 34 -14 37 4 3
26 6 51 6 l45 0 -5 -64z m-223 18 c-38 -55 -34 -110 10 -168 19 -25 31 -46 27
-46 -17 0 -72 60 -78 86 -7 29 11 120 30 143 9 11 5 12 -22 7 -21 -5 -32 -4
-32 3 0 6 19 11 45 11 l44 0 -24 -36z m-156 23 c-2 -1 -15 -11 -29 -22 l-25
-20 19 23 c11 12 24 22 29 22 6 0 8 -1 6 -3z m618 -23 c4 -10 -1 -22 -11 -29
-9 -7 -15 -18 -14 -25 2 -7 -3 -15 -9 -17 -15 -6 -17 23 -3 32 6 4 8 11 4 16
-8 13 3 39 16 39 6 0 13 -7 17 -16z m-400 -19 c7 -20 -2 -29 -21 -22 -9 4 -13
13 -10 22 8 19 23 19 31 0z m-23 -66 c-3 -5 -10 -7 -15 -3 -5 3 -7 10 -3 15 3
5 10 7 15 3 5 -3 7 -10 3 -15z m743 -99 c14 -11 30 -17 36 -13 5 3 7 1 4 -4
-6 -9 14 -24 35 -27 3 -1 10 -5 15 -10 5 -5 2 -6 -7 -2 -8 4 -7 1 3 -6 36 -25
53 -40 37 -32 -9 4 -7 -1 5 -14 36 -38 44 -50 51 -76 3 -14 9 -24 13 -21 9 5
10 1 12 -111 0 -51 -4 -101 -10 -112 -6 -11 -11 -28 -11 -36 0 -9 -4 -16 -10
-16 -5 0 -10 -9 -10 -19 0 -11 -5 -23 -10 -26 -6 -4 -7 -12 -3 -18 4 -7 -2 -5
-12 3 -12 10 -16 10 -11 2 4 -7 2 -20 -6 -29 -11 -14 -11 -16 1 -8 10 5 12 4
7 -3 -4 -7 -14 -12 -22 -12 -8 0 -14 -5 -14 -10 0 -6 -19 -31 -43 -54 -23 -24
-41 -49 -39 -55 2 -6 -4 -14 -14 -18 -20 -8 -49 -30 -72 -54 -16 -19 -40 -14
-102 17 -40 20 -103 65 -109 77 -1 4 -12 17 -23 27 -12 11 -17 24 -13 31 5 8
4 10 -3 5 -7 -4 -12 -5 -12 -2 0 5 81 138 90 146 7 7 28 40 42 68 6 12 16 22
22 22 7 0 18 9 26 20 8 11 23 20 32 20 10 0 36 11 58 25 38 24 50 47 31 59 -8
5 -93 -24 -136 -47 -11 -6 -59 -13 -107 -15 -74 -4 -89 -2 -94 12 -3 9 -13 16
-21 16 -41 0 23 153 93 222 42 42 91 67 119 59 6 -1 6 1 2 5 -12 13 52 32 106
33 34 1 56 -5 74 -19z m-2803 -26 c3 -8 2 -12 -4 -9 -6 3 -10 10 -10 16 0 14
7 11 14 -7z m54 -210 c5 3 18 -1 28 -9 10 -9 15 -15 9 -14 -22 3 -24 -2 -7
-19 9 -11 20 -17 25 -15 4 2 7 -3 7 -11 0 -10 -6 -13 -17 -10 -15 5 -16 4 -3
-5 21 -15 53 -14 44 2 -4 6 -3 8 1 4 16 -14 13 -37 -4 -37 -30 0 -113 59 -107
76 3 8 2 12 -3 9 -13 -8 -22 10 -15 29 5 13 10 14 20 5 7 -6 17 -8 22 -5z
m2227 -80 c63 -13 129 -19 221 -19 l131 0 -34 -31 c-18 -17 -33 -34 -33 -38 0
-4 -8 -19 -19 -34 -55 -81 -101 -153 -101 -160 0 -5 -16 -27 -35 -49 -19 -23
-35 -44 -35 -47 0 -11 -92 -91 -118 -103 -43 -19 -49 -16 -56 37 -4 30 -11 49
-18 47 -7 -1 -13 7 -15 18 -3 16 -2 17 6 5 10 -13 11 -13 10 0 0 24 -20 54
-72 110 -47 51 -48 53 -45 110 1 35 -2 63 -10 72 -6 8 -15 50 -18 92 l-7 77
79 -34 c43 -18 120 -42 169 -53z m742 34 c-3 -8 -6 -5 -6 6 -1 11 2 17 5 13 3
-3 4 -12 1 -19z m0 -100 c-3 -8 -6 -5 -6 6 -1 11 2 17 5 13 3 -3 4 -12 1 -19z
m-3410 -150 c-3 -7 -5 -2 -5 12 0 14 2 19 5 13 2 -7 2 -19 0 -25z m2544 -125
c13 -16 12 -17 -3 -4 -17 13 -22 21 -14 21 2 0 10 -8 17 -17z m-2524 -85 c-3
-8 -6 -5 -6 6 -1 11 2 17 5 13 3 -3 4 -12 1 -19z m3072 -185 l-4 -108 32 1
c21 1 31 -2 26 -9 -4 -7 6 -8 31 -4 22 3 34 2 31 -4 -4 -5 2 -10 12 -10 10 -1
43 -4 73 -7 30 -3 74 -6 97 -6 26 0 37 -4 30 -9 -7 -5 5 -6 28 -3 30 4 36 3
25 -5 -11 -8 -5 -9 23 -5 25 3 35 1 31 -6 -5 -7 4 -9 25 -6 17 2 31 0 31 -5 0
-5 6 -7 14 -4 8 3 18 -5 25 -20 l12 -26 -158 7 c-87 4 -216 11 -288 16 -71 6
-193 12 -271 13 -77 2 -146 7 -152 11 -21 13 -13 43 19 70 17 14 34 26 38 26
4 0 16 8 27 18 36 33 144 112 153 112 5 0 18 10 28 23 15 20 50 46 62 47 2 0
2 -48 0 -107z m-2888 -188 c38 -17 83 -53 93 -75 3 -8 15 -28 25 -45 29 -44
28 -179 0 -245 -11 -27 -27 -51 -36 -54 -8 -3 -12 -10 -8 -15 3 -5 -4 -12 -15
-16 -11 -4 -18 -11 -15 -16 3 -5 -2 -6 -11 -2 -10 4 -15 2 -11 -4 3 -5 1 -10
-6 -11 -7 0 -37 -8 -67 -16 -63 -18 -84 -20 -75 -7 3 5 -3 12 -14 16 -81 25
-161 150 -161 249 0 39 25 121 46 155 20 31 68 71 103 88 37 16 113 16 152 -2z
m2905 -40 c30 -15 84 -71 84 -87 0 -5 5 -6 12 -2 6 4 8 3 4 -4 -3 -6 -2 -13 3
-17 6 -3 8 -12 4 -20 -3 -8 -1 -15 3 -15 5 0 9 -29 9 -64 0 -36 -4 -62 -9 -58
-5 3 -7 -4 -4 -16 4 -12 0 -26 -8 -33 -8 -6 -11 -16 -7 -22 3 -6 1 -7 -5 -3
-8 5 -12 0 -12 -14 0 -12 -10 -25 -25 -32 -13 -6 -22 -15 -19 -19 3 -5 2 -9
-3 -10 -28 -2 -48 -9 -50 -16 -3 -9 -102 0 -140 12 -26 8 -79 73 -99 120 -17
41 -18 123 -3 174 15 52 70 112 121 133 47 20 98 17 144 -7z m-3162 -7 c-20
-23 -40 -67 -63 -139 -6 -20 -11 -64 -10 -98 1 -34 -3 -67 -8 -72 -14 -14
-113 -23 -156 -15 -21 4 -41 16 -51 30 -17 27 -28 116 -13 116 11 0 63 62 60
72 -2 4 0 7 5 6 14 -3 42 14 36 23 -3 5 -2 8 3 7 5 -2 38 13 73 32 62 33 114
56 134 59 5 0 1 -9 -10 -21z m-550 -28 c71 -6 137 -10 146 -10 13 0 22 -16 34
-64 8 -35 21 -77 27 -92 6 -16 11 -50 10 -76 -3 -56 27 -126 64 -154 15 -10
59 -68 99 -129 247 -374 595 -611 1036 -706 90 -20 134 -23 305 -23 169 0 216
4 305 23 218 46 396 120 578 240 50 33 92 62 92 64 0 2 -25 21 -55 41 -64 42
-135 133 -163 209 -25 66 -39 162 -47 309 l-6 117 28 7 c15 3 55 14 88 24 33
10 72 21 88 24 l27 6 0 -85 0 -85 -64 0 c-54 0 -67 -4 -87 -24 -24 -25 -49
-94 -49 -137 0 -43 31 -118 57 -139 32 -25 99 -26 147 -4 32 16 36 16 51 0 40
-39 163 -9 180 44 6 18 12 19 60 14 l54 -7 54 84 c30 46 69 113 87 149 33 65
33 65 48 41 42 -62 157 -98 279 -87 l73 7 -25 -58 c-39 -88 -126 -238 -197
-338 -84 -120 -336 -371 -456 -455 -256 -180 -516 -288 -820 -342 -177 -31
-482 -31 -654 0 -309 56 -569 165 -820 342 -107 76 -302 260 -390 369 -182
226 -328 524 -388 798 -29 129 -29 126 28 119 26 -3 105 -11 176 -16z m3463
-12 c-33 -46 -48 -101 -51 -185 -1 -40 -5 -75 -8 -79 -14 -13 -94 -24 -135
-18 -52 8 -75 35 -75 90 0 30 7 43 42 75 24 22 38 39 32 39 -6 0 -9 7 -6 15 4
8 13 15 21 15 8 0 11 -5 8 -10 -4 -6 17 3 45 20 28 16 55 30 60 30 5 0 24 9
42 20 46 28 53 25 25 -12z m576 -15 c-7 -2 -19 -2 -25 0 -7 3 -2 5 12 5 14 0
19 -2 13 -5z m-1239 -135 c3 -13 6 -62 6 -110 l0 -88 -40 0 -40 0 0 104 0 105
28 4 c15 2 30 5 33 6 4 0 9 -9 13 -21z m-127 -160 c-2 -18 -4 -4 -4 32 0 36 2
50 4 33 2 -18 2 -48 0 -65z m-1667 -69 c0 -21 -4 -39 -10 -39 -5 0 -10 21 -10
46 0 27 4 43 10 39 6 -3 10 -24 10 -46z m37 -21 c-2 -13 -4 -3 -4 22 0 25 2
35 4 23 2 -13 2 -33 0 -45z m696 35 c-7 -2 -19 -2 -25 0 -7 3 -2 5 12 5 14 0
19 -2 13 -5z m1035 -88 c-3 -3 -9 2 -12 12 -6 14 -5 15 5 6 7 -7 10 -15 7 -18z"/>
<path d="M1490 3760 c-6 -11 -8 -20 -6 -20 3 0 10 9 16 20 6 11 8 20 6 20 -3
0 -10 -9 -16 -20z"/>
<path d="M2935 3541 c-3 -5 -2 -12 3 -15 5 -3 9 1 9 9 0 17 -3 19 -12 6z"/>
<path d="M2854 3488 l-19 -23 23 19 c12 11 22 21 22 23 0 8 -8 2 -26 -19z"/>
<path d="M3259 3493 c-13 -16 -12 -17 4 -4 16 13 21 21 13 21 -2 0 -10 -8 -17
-17z"/>
<path d="M3431 3494 c0 -11 3 -14 6 -6 3 7 2 16 -1 19 -3 4 -6 -2 -5 -13z"/>
<path d="M2796 3462 c-2 -4 4 -8 14 -8 10 0 16 4 14 8 -3 4 -9 8 -14 8 -5 0
-11 -4 -14 -8z"/>
<path d="M2990 3455 c-7 -8 -17 -12 -23 -8 -5 3 -7 1 -3 -5 3 -6 3 -13 -1 -15
-5 -3 -8 -43 -8 -90 0 -49 -4 -80 -8 -74 -5 7 -6 4 -2 -8 4 -11 8 -25 8 -31 1
-17 70 -21 75 -4 2 5 9 10 16 10 16 0 16 4 23 112 3 54 0 94 -7 107 -13 25
-52 28 -70 6z m69 -109 c-4 -74 -7 -87 -28 -105 -42 -37 -45 -30 -41 99 2 59
20 90 53 90 18 0 19 -6 16 -84z"/>
<path d="M2700 3400 c-9 -6 -10 -10 -3 -10 6 0 15 5 18 10 8 12 4 12 -15 0z"/>
<path d="M3352 3350 c0 -19 2 -27 5 -17 2 9 2 25 0 35 -3 9 -5 1 -5 -18z"/>
<path d="M2853 3348 c-29 -14 -40 -49 -39 -129 2 -97 33 -125 81 -73 22 24 25
36 25 105 0 42 -3 84 -6 93 -7 18 -29 20 -61 4z m52 -78 c8 -56 -7 -115 -32
-124 -25 -10 -34 14 -30 75 8 100 50 134 62 49z"/>
<path d="M3403 3270 c0 -41 2 -58 4 -37 2 20 2 54 0 75 -2 20 -4 3 -4 -38z"/>
<path d="M2715 3290 c3 -5 8 -10 11 -10 2 0 4 5 4 10 0 6 -5 10 -11 10 -5 0
-7 -4 -4 -10z"/>
<path d="M2716 3265 c-8 -8 -21 -15 -28 -15 -19 0 -19 -180 -1 -202 7 -8 10
-17 7 -21 -18 -17 29 3 49 21 13 12 26 20 28 17 3 -2 6 36 8 86 2 75 -1 94
-15 110 -21 23 -28 24 -48 4z m44 -92 c0 -82 -7 -110 -28 -118 -25 -9 -33 15
-29 83 5 59 25 102 49 102 4 0 8 -30 8 -67z"/>
<path d="M3183 3242 c1 -14 5 -18 11 -12 7 7 6 14 -1 21 -9 9 -12 7 -10 -9z"/>
<path d="M2430 3225 c-12 -13 -27 -22 -33 -18 -6 4 -7 1 -2 -6 5 -9 15 -5 36
15 16 15 29 29 29 31 0 7 -8 1 -30 -22z"/>
<path d="M3221 3234 c0 -11 3 -14 6 -6 3 7 2 16 -1 19 -3 4 -6 -2 -5 -13z"/>
<path d="M3211 3193 c-1 -6 -4 -20 -7 -30 -5 -17 -5 -17 6 0 6 10 9 23 6 30
-3 9 -5 9 -5 0z"/>
<path d="M2561 3165 c-28 -28 -40 -126 -22 -192 11 -40 13 -42 37 -33 14 6 30
8 35 5 5 -4 6 0 3 8 -3 8 2 20 11 27 13 11 16 31 14 98 -1 63 2 86 12 93 9 6
10 9 2 9 -6 0 -15 -4 -18 -10 -4 -6 -14 -5 -28 4 -20 12 -24 12 -46 -9z m57
-106 c-3 -55 -9 -84 -19 -90 -27 -17 -34 -2 -34 68 0 72 13 103 43 103 12 0
14 -13 10 -81z"/>
<path d="M3083 3153 c4 -3 -3 -18 -15 -32 l-23 -26 27 24 c24 21 29 41 11 41
-4 0 -3 -3 0 -7z"/>
<path d="M3186 3113 c-6 -14 -5 -15 5 -6 7 7 10 15 7 18 -3 3 -9 -2 -12 -12z"/>
<path d="M2402 3099 c9 -5 15 -16 12 -24 -4 -8 -10 -12 -15 -9 -8 4 -13 -8
-11 -27 1 -3 2 -42 3 -87 2 -76 3 -81 26 -87 14 -3 31 -1 37 4 7 6 15 9 18 6
7 -7 9 9 15 111 4 87 3 93 -18 108 -18 12 -25 13 -31 3 -6 -9 -10 -9 -20 1 -6
6 -17 12 -22 12 -6 0 -3 -5 6 -11z m77 -101 c-1 -85 -10 -112 -37 -116 -21 -3
-22 0 -22 69 0 53 4 77 17 91 31 35 43 23 42 -44z"/>
<path d="M1999 2993 c-18 -20 -19 -23 -4 -13 32 24 47 40 37 40 -4 0 -19 -12
-33 -27z"/>
<path d="M2286 3005 c-8 -8 -18 -15 -23 -15 -9 0 -10 -6 -14 -90 -3 -78 8
-120 32 -120 11 0 18 -4 14 -9 -3 -5 0 -13 6 -17 7 -4 9 -3 5 4 -3 6 5 22 19
36 23 23 25 32 25 114 0 86 -8 112 -36 112 -7 0 -19 -7 -28 -15z m49 -80 c4
-24 3 -61 -2 -81 -8 -36 -35 -65 -49 -51 -12 11 -7 147 6 162 23 27 39 17 45
-30z"/>
<path d="M3135 3009 c-4 -6 -5 -12 -2 -15 2 -3 7 2 10 11 7 17 1 20 -8 4z"/>
<path d="M2906 2995 c-11 -8 -15 -15 -9 -15 6 0 16 7 23 15 16 19 11 19 -14 0z"/>
<path d="M3412 2970 c0 -14 2 -19 5 -12 2 6 2 18 0 25 -3 6 -5 1 -5 -13z"/>
<path d="M1934 2949 c-19 -22 -19 -22 3 -10 24 12 39 31 25 31 -5 0 -17 -10
-28 -21z"/>
<path d="M2019 2953 c-13 -16 -12 -17 4 -4 9 7 17 15 17 17 0 8 -8 3 -21 -13z"/>
<path d="M2844 2948 l-19 -23 23 19 c12 11 22 21 22 23 0 8 -8 2 -26 -19z"/>
<path d="M1884 2944 c2 -10 -6 -30 -18 -43 -21 -24 -21 -24 0 -13 11 6 27 18
34 27 11 13 11 19 -3 32 -14 15 -15 14 -13 -3z"/>
<path d="M2147 2906 c-14 -13 -27 -22 -29 -20 -9 8 -8 -145 1 -168 7 -18 6
-29 -2 -37 -7 -7 -7 -11 -2 -10 6 1 17 -1 26 -5 8 -4 26 -2 40 4 22 9 22 9 -8
6 -18 -2 -35 0 -39 5 -3 5 6 9 19 9 40 0 57 38 57 128 0 64 -3 82 -18 96 -18
15 -20 15 -45 -8z m53 -88 c0 -69 -16 -111 -43 -116 -15 -3 -17 6 -17 69 0 53
4 77 17 91 31 35 43 23 43 -44z"/>
<path d="M3060 2885 c-7 -9 -11 -17 -9 -20 3 -2 10 5 17 15 14 24 10 26 -8 5z"/>
<path d="M1895 2870 c-3 -5 -1 -10 4 -10 6 0 11 5 11 10 0 6 -2 10 -4 10 -3 0
-8 -4 -11 -10z"/>
<path d="M2675 2850 c-3 -6 1 -7 9 -4 18 7 21 14 7 14 -6 0 -13 -4 -16 -10z"/>
<path d="M1696 2825 c-11 -8 -15 -15 -9 -15 6 0 16 7 23 15 16 19 11 19 -14 0z"/>
<path d="M1991 2805 c-6 -17 -11 -63 -11 -101 0 -51 -3 -65 -11 -54 -9 13 -10
13 -6 0 6 -24 64 -36 85 -18 9 9 24 18 32 21 8 3 10 6 5 6 -7 1 -10 26 -9 64
1 34 0 44 -3 22 -5 -61 -12 -82 -29 -99 -31 -31 -44 -20 -44 39 0 70 16 105
52 112 15 3 28 8 28 12 -1 19 -20 31 -47 29 -24 -2 -33 -9 -42 -33z"/>
<path d="M2601 2826 c-10 -12 -8 -13 8 -9 12 3 18 9 15 14 -7 12 -10 11 -23
-5z"/>
<path d="M2241 2794 c0 -11 3 -14 6 -6 3 7 2 16 -1 19 -3 4 -6 -2 -5 -13z"/>
<path d="M2501 2779 c-13 -5 -21 -12 -18 -15 3 -3 18 1 34 10 31 17 21 20 -16
5z"/>
<path d="M1900 2752 c-18 -6 -57 -42 -46 -42 5 0 4 -6 -2 -12 -18 -23 2 -146
25 -155 8 -3 24 4 36 17 l22 22 -27 -17 c-27 -17 -27 -16 -34 9 -14 58 14 144
49 146 4 0 7 -28 8 -62 0 -37 3 -55 8 -45 9 23 -2 124 -15 136 -5 5 -16 6 -24
3z"/>
<path d="M2915 2730 c-10 -11 -14 -20 -9 -20 5 0 3 -4 -4 -9 -11 -6 -10 -10 4
-15 10 -4 15 -4 11 0 -4 4 -2 13 4 21 6 7 8 13 4 13 -4 0 -2 7 5 15 19 22 6
18 -15 -5z"/>
<path d="M2350 2720 c-8 -5 -10 -10 -5 -10 6 0 17 5 25 10 8 5 11 10 5 10 -5
0 -17 -5 -25 -10z"/>
<path d="M2308 2703 c7 -3 16 -2 19 1 4 3 -2 6 -13 5 -11 0 -14 -3 -6 -6z"/>
<path d="M2225 2690 c-13 -6 -15 -9 -5 -9 8 0 22 4 30 9 18 12 2 12 -25 0z"/>
<path d="M2795 2650 c-3 -6 1 -7 9 -4 18 7 21 14 7 14 -6 0 -13 -4 -16 -10z"/>
<path d="M1778 2603 c7 -3 16 -2 19 1 4 3 -2 6 -13 5 -11 0 -14 -3 -6 -6z"/>
<path d="M1658 2573 c7 -3 16 -2 19 1 4 3 -2 6 -13 5 -11 0 -14 -3 -6 -6z"/>
<path d="M2203 2513 c15 -2 39 -2 55 0 15 2 2 4 -28 4 -30 0 -43 -2 -27 -4z"/>
<path d="M2083 2503 c15 -2 39 -2 55 0 15 2 2 4 -28 4 -30 0 -43 -2 -27 -4z"/>
<path d="M1963 2493 c15 -2 39 -2 55 0 15 2 2 4 -28 4 -30 0 -43 -2 -27 -4z"/>
<path d="M1853 2483 c15 -2 37 -2 50 0 12 2 0 4 -28 4 -27 0 -38 -2 -22 -4z"/>
<path d="M1545 2280 c-47 -10 -88 -35 -112 -69 -13 -16 -23 -34 -23 -40 0 -5
-6 -11 -12 -13 -9 -3 -13 -31 -13 -94 1 -99 11 -126 70 -186 76 -78 223 -56
274 41 8 14 9 21 2 17 -7 -5 -9 -1 -5 8 3 9 9 14 14 11 14 -8 30 46 29 98 0
56 -31 144 -48 140 -6 -2 -10 2 -8 9 1 7 -3 12 -10 13 -7 0 -18 7 -25 15 -11
12 -11 12 5 1 10 -8 17 -9 17 -3 0 26 -107 62 -155 52z m75 -140 c11 0 60 -48
60 -58 0 -4 -25 -13 -56 -20 -44 -11 -58 -11 -70 -1 -29 24 9 98 44 84 8 -3
18 -5 22 -5z m139 -78 c0 -26 -4 -55 -8 -66 -4 -10 -7 12 -7 52 1 38 4 68 9
65 4 -2 7 -25 6 -51z"/>
<path d="M4393 2222 c-52 -33 -93 -111 -93 -177 0 -59 42 -144 85 -172 70 -46
133 -42 192 13 21 20 31 33 23 29 -8 -4 -4 2 9 13 15 12 22 26 18 35 -3 9 1
18 9 21 16 6 20 102 4 126 -5 8 -10 11 -10 5 0 -13 -20 17 -20 30 0 6 5 3 10
-5 8 -13 10 -12 10 3 0 9 -6 17 -14 17 -7 0 -20 8 -27 18 -13 15 -12 16 4 3
15 -12 17 -12 12 1 -3 7 -24 26 -47 41 -56 36 -109 36 -165 -1z m141 -112 c40
-15 33 -45 -13 -58 -21 -7 -45 -12 -54 -12 -18 0 -29 24 -20 48 12 33 41 40
87 22z m103 -77 c-3 -10 -5 -4 -5 12 0 17 2 24 5 18 2 -7 2 -21 0 -30z"/>
</g>
</svg>
